<?xml version="1.0" encoding="utf-8"?>
<!-- Generator: Adobe Illustrator 21.0.0, SVG Export Plug-In . SVG Version: 6.00 Build 0)  -->
<svg version="1.1" xmlns="http://www.w3.org/2000/svg" xmlns:xlink="http://www.w3.org/1999/xlink" x="0px" y="0px"
	 viewBox="0 0 97.3 136" style="enable-background:new 0 0 97.3 136;" xml:space="preserve">
<style type="text/css">
	.st0{fill:url(#SVGID_1_);}
	.st1{opacity:0.55;}
	.st2{fill:#2D2D2D;}
	.st3{fill:#FED239;}
</style>
<g id="Calque_1">
	
		<radialGradient id="SVGID_1_" cx="41.8391" cy="68" r="46.8494" gradientTransform="matrix(1.3109 0 0 2.4765 -6.1809 -100.4019)" gradientUnits="userSpaceOnUse">
		<stop  offset="0" style="stop-color:#000000"/>
		<stop  offset="1.701716e-02" style="stop-color:#0C0C0C"/>
		<stop  offset="0.1118" style="stop-color:#4C4C4C"/>
		<stop  offset="0.2055" style="stop-color:#828282"/>
		<stop  offset="0.2957" style="stop-color:#AFAFAF"/>
		<stop  offset="0.3819" style="stop-color:#D2D2D2"/>
		<stop  offset="0.4629" style="stop-color:#EBEBEB"/>
		<stop  offset="0.5368" style="stop-color:#FAFAFA"/>
		<stop  offset="0.597" style="stop-color:#FFFFFF"/>
	</radialGradient>
	<path class="st0" d="M10.5,0h76.3c5.8,0,10.5,4.7,10.5,10.5v115c0,5.8-4.7,10.5-10.5,10.5H10.5C4.7,136,0,131.3,0,125.5v-115
		C0,4.7,4.7,0,10.5,0z"/>
	<g>
		<g class="st1">
			<path class="st2" d="M63.3,30.7l-11.7,1.7c0.7,4.1-2.1,7.8-6.2,8.4s-7.8-2.1-8.4-6.2l-11.7,1.8c-1.6,0.3-2.8,1.7-2.5,3.3
				l9.9,64.8c0.3,1.6,1.7,2.8,3.3,2.5l11.7-1.7c-0.7-4.1,2.1-7.8,6.2-8.4s7.8,2.1,8.4,6.2l11.7-1.7c1.6-0.3,2.8-1.7,2.5-3.3l-9.9-65
				C66.3,31.6,64.9,30.5,63.3,30.7z"/>
		</g>
		<g>
			<path class="st3" d="M61.4,28.9l-11.7,1.7c0.7,4.1-2.1,7.8-6.2,8.4s-7.8-2.1-8.4-6.2l-11.7,1.8c-1.6,0.3-2.8,1.7-2.5,3.3
				l9.9,64.8c0.3,1.6,1.7,2.8,3.3,2.5l11.7-1.7c-0.7-4.1,2.1-7.8,6.2-8.4c4.1-0.7,7.8,2.1,8.4,6.2l11.7-1.7c1.6-0.3,2.8-1.7,2.5-3.3
				l-9.9-65C64.5,29.8,63,28.6,61.4,28.9z"/>
		</g>
		<path class="st2" d="M55.9,80.4c-1.6,2.8-3.6,4-6.3,4.1c-2,0-3.8-0.4-5.5-1.2c-1.7-0.8-2.9-2.1-3.6-4c-1.4-3.7-2.9-7.5-4.3-11.2
			c-0.3-0.8-0.7-1.8,0.4-2.5c0.7-0.5,1.7,0,2.5,1.2c0.7,0.9,1.2,2,1.7,2.9c0.1,0.3,0.4,0.4,0.7,0.7c0.1-0.3,0.3-0.5,0.4-0.9
			c0.8-4.7,1.4-9.5,2.2-14.2c0.1-0.5,0.1-1.1,0.3-1.6c0.3-1.1,0.8-1.4,1.7-1.3c0.9,0.1,1.4,0.8,1.3,1.8c-0.4,2.5-0.8,4.9-1.2,7.4
			c-0.1,0.9-0.3,1.8-0.4,2.6c-0.1,0.5-0.3,1.2,0.4,1.3c0.8,0.1,0.8-0.7,0.8-1.1c0.7-4.2,1.3-8.4,2-12.5c0.1-0.4,0.1-0.9,0.3-1.3
			c0.3-0.7,0.8-1.1,1.6-1.1c0.8,0.1,1.3,0.5,1.3,1.4c0,0.4,0,0.8-0.1,1.2c-0.7,4.2-1.3,8.4-2,12.6c-0.1,0.5-0.5,1.4,0.4,1.6
			c0.9,0.1,0.8-0.8,0.8-1.3c0.5-3.4,1.1-6.7,1.6-10.1c0-0.3,0.1-0.5,0.1-0.8c0.3-1.1,0.8-1.4,1.7-1.4c0.9,0.1,1.4,0.8,1.3,1.8
			c-0.1,1.1-0.3,2.1-0.5,3.2c-0.4,2.6-0.8,5.3-1.2,7.9c0,0.4-0.1,0.8-0.1,1.2c0,0.1,0.3,0.5,0.4,0.5c0.3,0,0.5-0.1,0.7-0.4
			c0.1-0.3,0.1-0.7,0.3-0.9c0.4-2.4,0.8-4.7,1.2-7.2c0.1-0.5,0.1-1.1,0.4-1.3c0.4-0.4,1.1-0.7,1.4-0.7c0.5,0.1,0.9,0.7,1.2,1.2
			c0.1,0.3,0,0.8,0,1.3c-0.9,6.3-2,12.8-2.9,19.1C56.4,79.1,56,80,55.9,80.4z"/>
	</g>
</g>
<g id="Calque_2">
</g>
</svg>
