<?xml version="1.0" encoding="utf-8"?>
<!-- Generator: Adobe Illustrator 21.0.0, SVG Export Plug-In . SVG Version: 6.00 Build 0)  -->
<svg version="1.1" id="Calque_1" xmlns="http://www.w3.org/2000/svg" xmlns:xlink="http://www.w3.org/1999/xlink" x="0px" y="0px"
	 viewBox="0 0 83.4 100" style="enable-background:new 0 0 83.4 100;" xml:space="preserve">
<style type="text/css">
	.st0{fill:url(#SVGID_1_);}
	.st1{opacity:0.55;}
	.st2{fill:#2D2D2D;}
	.st3{fill:#FED239;}
</style>
<radialGradient id="SVGID_1_" cx="41.7" cy="50" r="42.6561" gradientTransform="matrix(1.2337 0 0 -2 -9.7465 150)" gradientUnits="userSpaceOnUse">
	<stop  offset="0" style="stop-color:#000000"/>
	<stop  offset="1.701716e-02" style="stop-color:#0C0C0C"/>
	<stop  offset="0.1118" style="stop-color:#4C4C4C"/>
	<stop  offset="0.2055" style="stop-color:#828282"/>
	<stop  offset="0.2957" style="stop-color:#AFAFAF"/>
	<stop  offset="0.3819" style="stop-color:#D2D2D2"/>
	<stop  offset="0.4629" style="stop-color:#EBEBEB"/>
	<stop  offset="0.5368" style="stop-color:#FAFAFA"/>
	<stop  offset="0.597" style="stop-color:#FFFFFF"/>
</radialGradient>
<rect class="st0" width="83.4" height="100"/>
<g>
	<g class="st1">
		<path class="st2" d="M52.8,9.2l-8.9,1.3c0.5,3.1-1.6,5.9-4.7,6.4s-5.9-1.6-6.4-4.7l-8.9,1.4c-1.2,0.2-2.1,1.3-1.9,2.5l7.5,49.2
			c0.2,1.2,1.3,2.1,2.5,1.9l8.9-1.3c-0.5-3.1,1.6-5.9,4.7-6.4s5.9,1.6,6.4,4.7l8.9-1.3c1.2-0.2,2.1-1.3,1.9-2.5l-7.5-49.3
			C55.1,9.9,54,9,52.8,9.2z"/>
	</g>
	<g>
		<path class="st3" d="M51.4,7.8l-8.9,1.3c0.5,3.1-1.6,5.9-4.7,6.4s-5.9-1.6-6.4-4.7l-8.9,1.4c-1.2,0.2-2.1,1.3-1.9,2.5l7.5,49.2
			c0.2,1.2,1.3,2.1,2.5,1.9l8.9-1.3c-0.5-3.1,1.6-5.9,4.7-6.4s5.9,1.6,6.4,4.7l8.9-1.3c1.2-0.2,2.1-1.3,1.9-2.5L53.9,9.7
			C53.7,8.5,52.6,7.6,51.4,7.8z"/>
	</g>
	<path class="st2" d="M47.2,46.9c-1.2,2.1-2.7,3-4.8,3.1c-1.5,0-2.9-0.3-4.2-0.9c-1.3-0.6-2.2-1.6-2.7-3c-1.1-2.8-2.2-5.7-3.3-8.5
		c-0.2-0.6-0.5-1.4,0.3-1.9c0.5-0.4,1.3,0,1.9,0.9c0.5,0.7,0.9,1.5,1.3,2.2c0.1,0.2,0.3,0.3,0.5,0.5c0.1-0.2,0.2-0.4,0.3-0.7
		c0.6-3.6,1.1-7.2,1.7-10.8c0.1-0.4,0.1-0.8,0.2-1.2c0.2-0.8,0.6-1.1,1.3-1c0.7,0.1,1.1,0.6,1,1.4c-0.3,1.9-0.6,3.7-0.9,5.6
		c-0.1,0.7-0.2,1.4-0.3,2c-0.1,0.4-0.2,0.9,0.3,1c0.6,0.1,0.6-0.5,0.6-0.8c0.5-3.2,1-6.4,1.5-9.5c0.1-0.3,0.1-0.7,0.2-1
		c0.2-0.5,0.6-0.8,1.2-0.8c0.6,0.1,1,0.4,1,1.1c0,0.3,0,0.6-0.1,0.9c-0.5,3.2-1,6.4-1.5,9.6c-0.1,0.4-0.4,1.1,0.3,1.2
		c0.7,0.1,0.6-0.6,0.6-1c0.4-2.6,0.8-5.1,1.2-7.7c0-0.2,0.1-0.4,0.1-0.6c0.2-0.8,0.6-1.1,1.3-1.1c0.7,0.1,1.1,0.6,1,1.4
		s-0.2,1.6-0.4,2.4c-0.3,2-0.6,4-0.9,6c0,0.3-0.1,0.6-0.1,0.9c0,0.1,0.2,0.4,0.3,0.4c0.2,0,0.4-0.1,0.5-0.3s0.1-0.5,0.2-0.7
		c0.3-1.8,0.6-3.6,0.9-5.5c0.1-0.4,0.1-0.8,0.3-1c0.3-0.3,0.8-0.5,1.1-0.5c0.4,0.1,0.7,0.5,0.9,0.9c0.1,0.2,0,0.6,0,1
		c-0.7,4.8-1.5,9.7-2.2,14.5C47.6,45.9,47.3,46.6,47.2,46.9z"/>
</g>
<g>
	<path d="M16.6,80.7c0.3,0,0.6,0,0.8-0.1s0.4-0.1,0.6-0.2l0.3,0.9c-0.2,0.1-0.4,0.2-0.7,0.2s-0.6,0.1-1,0.1s-0.9-0.1-1.3-0.2
		s-0.7-0.4-1-0.6c-0.3-0.3-0.5-0.6-0.7-1s-0.3-0.8-0.3-1.3s0.1-0.9,0.2-1.3c0.2-0.4,0.4-0.7,0.6-1c0.3-0.3,0.6-0.5,1-0.6
		s0.8-0.2,1.3-0.2c0.4,0,0.8,0,1,0.1c0.3,0.1,0.5,0.2,0.7,0.3l-0.3,0.9c-0.2-0.1-0.4-0.2-0.6-0.2s-0.3-0.3-0.6-0.3
		c-0.3,0-0.5,0-0.8,0.1c-0.3,0.1-0.5,0.2-0.6,0.4c-0.2,0.2-0.3,0.4-0.4,0.7c-0.1,0.3-0.2,0.6-0.2,1s0.1,0.7,0.2,1
		c0.1,0.4,0.2,0.6,0.4,0.8s0.4,0.3,0.6,0.4C16.1,80.7,16.3,80.7,16.6,80.7z"/>
	<path d="M21.8,75.2c0.4,0,0.8,0.1,1.2,0.2c0.4,0.1,0.7,0.4,1,0.6c0.3,0.3,0.5,0.6,0.6,1c0.2,0.4,0.2,0.9,0.2,1.4s-0.1,1-0.2,1.4
		c-0.2,0.4-0.4,0.7-0.6,1s-0.6,0.5-1,0.6s-0.8,0.2-1.2,0.2c-0.4,0-0.8-0.1-1.2-0.2s-0.7-0.3-1-0.6c-0.3-0.3-0.5-0.6-0.6-1
		c-0.2-0.4-0.2-0.9-0.2-1.4s0.1-1,0.2-1.4c0.2-0.4,0.4-0.7,0.6-1c0.3-0.3,0.6-0.5,1-0.6S21.3,75.2,21.8,75.2z M20,78.5
		c0,0.4,0,0.7,0.1,1s0.2,0.5,0.4,0.7s0.4,0.3,0.6,0.4s0.4,0.1,0.7,0.1c0.3,0,0.5,0,0.7-0.1s0.4-0.2,0.6-0.4c0.2-0.2,0.3-0.4,0.4-0.7
		c0.1-0.3,0.1-0.6,0.1-1s0-0.7-0.1-1s-0.2-0.5-0.4-0.7s-0.4-0.3-0.6-0.4c-0.2-0.1-0.4-0.1-0.7-0.1c-0.3,0-0.5,0-0.7,0.1
		s-0.4,0.2-0.6,0.4c-0.2,0.2-0.3,0.4-0.4,0.7S20,78.1,20,78.5z"/>
	<path d="M25.9,75.3h1.2V79c0,0.6,0.1,1,0.3,1.3s0.6,0.4,1,0.4c0.5,0,0.8-0.1,1-0.4s0.3-0.7,0.3-1.1v-3.9h1.2v3.8
		c0,0.9-0.2,1.5-0.7,1.9c-0.4,0.4-1.1,0.6-1.9,0.6c-0.4,0-0.8-0.1-1.1-0.2c-0.3-0.1-0.6-0.3-0.8-0.5c-0.2-0.2-0.4-0.5-0.5-0.8
		c0-0.2,0-0.6,0-1V75.3z"/>
	<path d="M35.4,80.7c0.3,0,0.6,0,0.8-0.1s0.4-0.1,0.6-0.2l0.3,0.9c-0.2,0.1-0.4,0.2-0.7,0.2c-0.3,0-0.6,0.1-1,0.1
		c-0.4,0-0.9-0.1-1.3-0.2c-0.4-0.1-0.7-0.4-1-0.6c-0.3-0.3-0.5-0.6-0.7-1c-0.2-0.4-0.2-0.9-0.2-1.4s0.1-0.9,0.2-1.3
		c0.2-0.4,0.4-0.7,0.6-1c0.3-0.3,0.6-0.5,1-0.6s0.8-0.2,1.3-0.2c0.4,0,0.8,0,1,0.1c0.3,0.1,0.5,0.2,0.7,0.3l-0.3,0.9
		c-0.2-0.1-0.4-0.2-0.6-0.2c-0.2,0-0.4-0.1-0.7-0.1c-0.3,0-0.5,0-0.8,0.1c-0.3,0.1-0.5,0.2-0.6,0.4c-0.2,0.2-0.3,0.4-0.4,0.7
		c-0.1,0.3-0.2,0.6-0.2,1s0.1,0.7,0.2,1c0.1,0.3,0.2,0.5,0.4,0.7c0.2,0.2,0.4,0.3,0.6,0.4C34.8,80.7,35.1,80.7,35.4,80.7z"/>
	<path d="M40.5,75.2c0.4,0,0.8,0.1,1.2,0.2s0.7,0.4,1,0.6c0.3,0.3,0.5,0.6,0.6,1c0.2,0.4,0.2,0.9,0.2,1.4s-0.1,1-0.2,1.4
		c-0.2,0.4-0.4,0.7-0.6,1s-0.6,0.5-1,0.6s-0.8,0.2-1.2,0.2s-0.8-0.1-1.2-0.2c-0.4-0.1-0.7-0.3-1-0.6c-0.3-0.3-0.5-0.6-0.6-1
		c-0.2-0.4-0.2-0.9-0.2-1.4s0.1-1,0.2-1.4c0.2-0.4,0.4-0.7,0.6-1c0.3-0.3,0.6-0.5,1-0.6S40.1,75.2,40.5,75.2z M38.8,78.5
		c0,0.4,0,0.7,0.1,1s0.2,0.5,0.4,0.7c0.2,0.2,0.4,0.3,0.6,0.4s0.4,0.1,0.7,0.1s0.5,0,0.7-0.1s0.4-0.2,0.6-0.4
		c0.2-0.2,0.3-0.4,0.4-0.7c0.1-0.3,0.1-0.6,0.1-1s0-0.7-0.1-1s-0.2-0.5-0.4-0.7s-0.4-0.3-0.6-0.4c-0.2-0.1-0.4-0.1-0.7-0.1
		s-0.5,0-0.7,0.1s-0.4,0.2-0.6,0.4c-0.2,0.2-0.3,0.4-0.4,0.7S38.8,78.1,38.8,78.5z"/>
	<path d="M44.7,75.3h1.2V79c0,0.6,0.1,1,0.3,1.3s0.6,0.4,1,0.4c0.5,0,0.8-0.1,1-0.4s0.3-0.7,0.3-1.1v-3.9h1.2v3.8
		c0,0.9-0.2,1.5-0.7,1.9c-0.4,0.4-1.1,0.6-1.9,0.6c-0.4,0-0.8-0.1-1.1-0.2s-0.6-0.3-0.8-0.5s-0.4-0.5-0.5-0.8s-0.2-0.7-0.2-1.2v-3.6
		H44.7z"/>
	<path d="M54.2,80.7c0.3,0,0.6,0,0.8-0.1s0.4-0.1,0.6-0.2l0.3,0.9c-0.2,0.1-0.4,0.2-0.7,0.2s-0.6,0.1-1,0.1s-0.9-0.1-1.3-0.2
		c-0.4-0.1-0.7-0.4-1-0.6c-0.3-0.3-0.5-0.6-0.7-1s-0.3-0.8-0.3-1.3s0.1-0.9,0.2-1.3c0.2-0.4,0.4-0.7,0.6-1c0.3-0.3,0.6-0.5,1-0.6
		s0.8-0.2,1.3-0.2c0.4,0,0.8,0,1,0.1c0.3,0.1,0.5,0.2,0.7,0.3l-0.3,0.9c-0.2-0.1-0.4-0.2-0.6-0.2s-0.4-0.1-0.7-0.1s-0.5,0-0.8,0.1
		s-0.5,0.2-0.6,0.4c-0.2,0.2-0.3,0.4-0.4,0.7c-0.1,0.3-0.2,0.6-0.2,1s0.1,0.7,0.2,1c0.1,0.3,0.2,0.5,0.4,0.7s0.4,0.3,0.6,0.4
		C53.6,80.7,53.9,80.7,54.2,80.7z"/>
	<path d="M58,75.3v6.2h-1.2v-6.2H58z"/>
	<path d="M59.5,75.3h1.1l2.4,3.5c0.1,0.2,0.3,0.4,0.4,0.6c0.1,0.2,0.2,0.4,0.3,0.5l0,0c0-0.5-0.1-0.9-0.1-1.4s0-0.9,0-1.4v-1.8h1.1
		v6.2h-1.1l-2.3-3.3c-0.2-0.2-0.3-0.5-0.4-0.7c-0.1-0.2-0.2-0.4-0.3-0.6l0,0c0,0.5,0.1,1,0.1,1.4c0,0.5,0,0.9,0,1.4v1.8h-1.1v-6.2
		H59.5z"/>
	<path d="M66.1,75.3h4v1h-2.8v1.6h2.5v0.9h-2.5v1.8h2.8v1h-4V75.3z M68.1,74.6h-1l0.8-1.2h1.3L68.1,74.6z"/>
</g>
<g>
	<path d="M12.8,84.6h1c0.2,0,0.3,0,0.5,0.1c0.2,0.1,0.3,0.1,0.4,0.2s0.2,0.2,0.2,0.3s0,0.2,0,0.4s0,0.3-0.1,0.4
		c-0.1,0.1-0.1,0.2-0.2,0.3c-0.1,0.1-0.2,0.1-0.4,0.2c-0.1,0-0.3,0.1-0.5,0.1h-0.5V88h-0.4V84.6z M13.2,86.3h0.4c0.1,0,0.3,0,0.4,0
		s0.2-0.1,0.3-0.1c0.1-0.1,0.1-0.1,0.2-0.2c0-0.1,0.1-0.2,0.1-0.3c0-0.1,0-0.2-0.1-0.3c0-0.1-0.1-0.2-0.2-0.2
		C14.2,85,14.1,85,14,84.9c-0.1,0-0.2,0-0.3,0h-0.5V86.3z"/>
	<path d="M16.1,84.6h0.4l1.2,3.4h-0.4l-0.4-1h-1.4l-0.4,1h-0.3L16.1,84.6z M15.6,86.7h1.2L16.6,86c0-0.1-0.1-0.3-0.2-0.4
		c-0.1-0.2-0.1-0.3-0.2-0.5l0,0c0,0.1-0.1,0.2-0.1,0.3c0,0.1-0.1,0.2-0.1,0.2c0,0.1-0.1,0.1-0.1,0.2c0.1,0,0,0.1,0,0.2L15.6,86.7z"
		/>
	<path d="M19.1,84.6c0.2,0,0.3,0,0.5,0c0.1,0,0.3,0.1,0.4,0.1l-0.1,0.4C19.7,85,19.6,85,19.5,85s-0.2,0-0.4,0s-0.4,0-0.5,0.1
		s-0.2,0.2-0.2,0.4c0,0.2,0,0.3,0.1,0.4c0.1,0.1,0.3,0.2,0.5,0.2l0.4,0.1c0.3,0.1,0.5,0.2,0.6,0.4c0.1,0.2,0.2,0.3,0.2,0.5
		c0,0.1,0,0.3-0.1,0.4s-0.1,0.2-0.2,0.3c-0.1,0.1-0.2,0.1-0.4,0.2c-0.1,0-0.3,0.1-0.5,0.1c-0.2,0-0.3,0-0.5,0
		c-0.2,0-0.3-0.1-0.5-0.2l0.1-0.3c0.1,0.1,0.3,0.1,0.4,0.2c0.1,0,0.3,0.1,0.5,0.1c0.2,0,0.4,0,0.5-0.1c0.1-0.1,0.2-0.2,0.2-0.4
		c0-0.1,0-0.1,0-0.2s-0.1-0.1-0.1-0.2s-0.1-0.1-0.2-0.2c-0.1,0-0.2-0.1-0.3-0.1l-0.3-0.1c-0.2-0.1-0.4-0.2-0.5-0.3
		c-0.1-0.1-0.2-0.3-0.2-0.5c0-0.3,0.1-0.5,0.3-0.7C18.6,84.9,18.8,84.6,19.1,84.6z"/>
	<path d="M23,84.6c0.2,0,0.4,0,0.6,0.1s0.4,0.2,0.5,0.3c0.1,0.1,0.3,0.3,0.3,0.5s0.1,0.4,0.1,0.7c0,0.3,0,0.6-0.1,0.8
		c-0.1,0.2-0.2,0.4-0.4,0.5s-0.4,0.2-0.6,0.3c-0.2,0.1-0.4,0.1-0.7,0.1h-0.9v-3.4L23,84.6L23,84.6z M22.4,87.6h0.4
		c0.2,0,0.4,0,0.5-0.1s0.3-0.1,0.5-0.2s0.2-0.3,0.3-0.4s0.1-0.4,0.1-0.7c0-0.2,0-0.4-0.1-0.5c-0.1-0.2-0.1-0.3-0.3-0.4
		c-0.1-0.1-0.2-0.2-0.4-0.2c-0.2,0-0.3-0.1-0.5-0.1h-0.6v2.6H22.4z"/>
	<path d="M25.3,84.6c-0.1,0-0.1,0-0.2-0.1c0-0.1-0.1-0.1-0.1-0.2s0-0.1,0.1-0.2c0-0.1,0.1-0.1,0.2-0.1h0.1c0,0,0.1,0,0.1,0.1
		l0.1,0.1c0,0,0,0.1,0,0.2c0,0.2-0.1,0.3-0.2,0.5s-0.2,0.3-0.4,0.3l-0.1-0.1c0.1,0,0.2-0.1,0.3-0.2C25.3,84.8,25.3,84.8,25.3,84.6
		L25.3,84.6z"/>
	<path d="M27.1,84.6h0.4l1.3,3.4h-0.4L28,87h-1.4l-0.4,1h-0.4L27.1,84.6z M26.7,86.7h1.2L27.6,86c0-0.1-0.1-0.3-0.2-0.4
		c-0.1-0.2-0.1-0.3-0.2-0.5l0,0c0,0.1-0.1,0.2-0.1,0.3c0,0.1-0.1,0.2-0.1,0.2c0,0.1-0.1,0.1-0.1,0.2s-0.1,0.1-0.1,0.2L26.7,86.7z"/>
	<path d="M31.2,84.6v0.3h-1.5v1.2h1.4v0.3h-1.4V88h-0.4v-3.4H31.2z"/>
	<path d="M33.7,84.6v0.3h-1.5v1.2h1.4v0.3h-1.4V88h-0.4v-3.4H33.7z"/>
	<path d="M34.7,84.6V88h-0.4v-3.4H34.7z"/>
	<path d="M37,87.7c0.2,0,0.3,0,0.4,0s0.2-0.1,0.3-0.1l0.1,0.3C37.7,88,37.6,88,37.4,88c-0.1,0-0.3,0-0.5,0s-0.4,0-0.6-0.1
		c-0.2-0.1-0.4-0.2-0.5-0.3c-0.1-0.1-0.3-0.3-0.3-0.5c-0.1-0.2-0.1-0.5-0.1-0.7c0-0.3,0-0.5,0.1-0.7c0.1-0.2,0.2-0.4,0.3-0.5
		s0.3-0.3,0.5-0.3c0.2-0.1,0.4-0.1,0.6-0.1s0.4,0,0.5,0.1c0.1,0,0.3,0.1,0.4,0.1l0,0c-0.1-0.1-0.2-0.1-0.4-0.1s-0.2,0-0.4,0
		c-0.2,0-0.3,0-0.5,0.1c-0.2,0.1-0.3,0.1-0.4,0.2s-0.2,0.3-0.3,0.4c-0.1,0.2-0.1,0.4-0.1,0.6c0,0.3,0,0.5,0.1,0.7s0.2,0.3,0.3,0.4
		c0.1,0.1,0.2,0.2,0.4,0.2C36.7,87.7,36.8,87.7,37,87.7z"/>
	<path d="M38.5,88v-3.4h0.4v1.5h1.7v-1.5h0.3V88h-0.4v-1.6h-1.7V88H38.5z"/>
	<path d="M41.8,84.6h2v0.3h-1.6V86h1.4v0.3h-1.4v1.3h1.6V88h-2V84.6z"/>
	<path d="M46.6,84.6c0.2,0,0.4,0,0.6,0.1s0.4,0.2,0.5,0.3c0.1,0.1,0.3,0.3,0.3,0.5s0.1,0.4,0.1,0.7c0,0.3,0,0.6-0.1,0.8
		c-0.1,0.2-0.2,0.4-0.4,0.5s-0.4,0.2-0.6,0.3c-0.1,0.1-0.4,0.2-0.6,0.2h-0.9v-3.4H46.6z M45.9,87.6h0.4c0.2,0,0.4,0,0.5-0.1
		s0.3-0.1,0.5-0.2s0.2-0.3,0.3-0.4s0.1-0.4,0.1-0.7c0-0.2,0-0.4-0.1-0.5c-0.1-0.2-0.1-0.3-0.3-0.4c-0.1-0.1-0.2-0.2-0.4-0.2
		S46.6,85,46.4,85h-0.5V87.6z"/>
	<path d="M49.2,84.6V88h-0.3v-3.4H49.2z"/>
	<path d="M51,84.6c0.2,0,0.3,0,0.5,0c0.1,0,0.3,0.1,0.4,0.1L51.8,85c-0.2-0.1-0.3-0.1-0.4-0.1s-0.2,0-0.4,0s-0.4,0-0.5,0.1
		s-0.2,0.2-0.2,0.4c0,0.2,0,0.3,0.1,0.4s0.3,0.2,0.5,0.2l0.4,0.1c0.3,0.1,0.5,0.2,0.6,0.4c0.1,0.2,0.2,0.3,0.2,0.5
		c0,0.1,0,0.3-0.1,0.4s-0.1,0.2-0.2,0.3c-0.1,0.1-0.2,0.1-0.4,0.2C51.2,88,51.1,88,50.9,88s-0.3,0-0.5,0s-0.3-0.1-0.5-0.2l0.1-0.3
		c0.1,0.1,0.3,0.1,0.4,0.2c0.1,0,0.3,0.1,0.5,0.1s0.4,0,0.5-0.1s0.2-0.2,0.2-0.4c0-0.1,0-0.1,0-0.2s-0.1-0.1-0.1-0.2
		s-0.1-0.1-0.2-0.2c-0.1,0-0.2-0.1-0.3-0.1l-0.3-0.1c-0.2-0.1-0.4-0.2-0.5-0.3c-0.1-0.1-0.2-0.3-0.2-0.5c0-0.3,0.1-0.5,0.3-0.7
		S50.6,84.6,51,84.6z"/>
	<path d="M52.7,84.6h1c0.2,0,0.3,0,0.5,0.1s0.3,0.1,0.4,0.2c0.1,0.1,0.2,0.2,0.2,0.3c0.1,0.1,0.1,0.3,0.1,0.4c0,0.2,0,0.3-0.1,0.4
		s-0.1,0.2-0.2,0.3c-0.1,0.1-0.2,0.1-0.4,0.2c-0.1,0-0.3,0.1-0.5,0.1h-0.5V88h-0.4L52.7,84.6L52.7,84.6z M53.1,86.3h0.4
		c0.1,0,0.3,0,0.4,0c0.1,0,0.2-0.1,0.3-0.1c0.1-0.1,0.1-0.1,0.2-0.2c0-0.1,0.1-0.2,0.1-0.3c0-0.1,0-0.2-0.1-0.3
		c0-0.1-0.1-0.2-0.2-0.2C54.1,85,54,85,53.9,84.9c-0.1,0-0.2,0-0.3,0h-0.5V86.3z"/>
	<path d="M56.8,84.6c0.2,0,0.4,0,0.6,0.1c0.2,0.1,0.3,0.2,0.5,0.3c0.1,0.1,0.2,0.3,0.3,0.5s0.1,0.5,0.1,0.8s0,0.5-0.1,0.7
		s-0.2,0.4-0.3,0.5s-0.3,0.3-0.5,0.3C57.2,88,57,88,56.8,88s-0.4,0-0.6-0.1c-0.2-0.1-0.3-0.2-0.5-0.3s-0.2-0.3-0.3-0.5
		s-0.1-0.5-0.1-0.8s0-0.5,0.1-0.7s0.2-0.4,0.3-0.5s0.3-0.3,0.5-0.3C56.4,84.6,56.6,84.6,56.8,84.6z M55.7,86.3c0,0.2,0,0.5,0.1,0.6
		c0.1,0.2,0.1,0.3,0.2,0.4c0.1,0.1,0.2,0.2,0.4,0.3c0.1,0.1,0.3,0.1,0.4,0.1c0.2,0,0.3,0,0.4-0.1c0.1-0.1,0.2-0.1,0.4-0.3
		s0.2-0.3,0.2-0.4c0.1-0.2,0.1-0.4,0.1-0.6s0-0.5-0.1-0.6c-0.1-0.2-0.1-0.3-0.2-0.4c-0.1-0.1-0.2-0.2-0.4-0.3
		c-0.1-0.1-0.3-0.1-0.4-0.1c-0.2,0-0.3,0-0.4,0.1c-0.1,0.1-0.3,0.1-0.4,0.3s-0.2,0.3-0.2,0.4C55.7,85.8,55.7,86,55.7,86.3z"/>
	<path d="M59,84.6h0.3l1.5,2.2c0.1,0.1,0.1,0.2,0.2,0.3s0.1,0.2,0.2,0.3l0,0c0-0.1,0-0.3,0-0.4s0-0.3,0-0.4v-2h0.4V88h-0.3l-1.5-2.1
		c-0.1-0.1-0.1-0.2-0.2-0.3c-0.1-0.1-0.1-0.2-0.2-0.4l0,0c0,0.2,0,0.3,0,0.5s0,0.3,0,0.5V88H59V84.6z"/>
	<path d="M62.8,84.6V88h-0.4v-3.4H62.8z"/>
	<path d="M64.6,84.6c0.3,0,0.6,0.1,0.8,0.2s0.3,0.4,0.3,0.6s-0.1,0.4-0.2,0.5s-0.3,0.2-0.4,0.2c0.1,0,0.2,0,0.3,0.1
		c0.1,0,0.2,0.1,0.2,0.2c0.1,0.1,0.1,0.2,0.2,0.3c0.1,0.1,0.1,0.2,0.1,0.3c0,0.1,0,0.3-0.1,0.4c-0.1,0.1-0.1,0.2-0.2,0.3
		c-0.1,0.1-0.2,0.1-0.4,0.2c-0.1,0-0.3,0.1-0.5,0.1h-0.9v-3.4C63.8,84.6,64.6,84.6,64.6,84.6z M64,86h0.4c0.1,0,0.2,0,0.3,0
		c0.1,0,0.2,0,0.2-0.1c0.1,0,0.1-0.1,0.2-0.2c0-0.1,0.1-0.2,0.1-0.3c0-0.2-0.1-0.3-0.2-0.4s-0.3-0.1-0.5-0.1h-0.4L64,86L64,86z
		 M64,87.6h0.4c0.1,0,0.2,0,0.3,0c0.1,0,0.2-0.1,0.3-0.1c0.1-0.1,0.1-0.1,0.2-0.2c0-0.1,0.1-0.2,0.1-0.3c0-0.1,0-0.2-0.1-0.3
		c0-0.1-0.1-0.1-0.2-0.2c-0.1,0-0.2-0.1-0.3-0.1c-0.1,0-0.2,0-0.3,0H64V87.6z"/>
	<path d="M66.4,84.6h0.4v3h1.5V88h-1.9V84.6z"/>
	<path d="M68.8,84.6h2v0.3h-1.6V86h1.4v0.3h-1.4v1.3h1.6V88h-2V84.6z"/>
</g>
</svg>
