<?xml version="1.0" encoding="utf-8"?>
<!-- Generator: Adobe Illustrator 21.0.0, SVG Export Plug-In . SVG Version: 6.00 Build 0)  -->
<svg version="1.1" id="Calque_1" xmlns="http://www.w3.org/2000/svg" xmlns:xlink="http://www.w3.org/1999/xlink" x="0px" y="0px"
	 viewBox="0 0 50 50" style="enable-background:new 0 0 50 50;" xml:space="preserve">
<style type="text/css">
	.st0{fill:#FFFFFF;}
</style>
<path class="st0" d="M1.5,13.9c0.4-0.6,0.7-1.2,1.2-1.7c2.4-2.9,4.9-5.7,7.4-8.6c0.4-0.5,0.9-0.8,1.3-1.2c0.2,0,0.5,0.1,0.7,0.1
	c0.3,0.3,0.6,0.6,0.9,0.9c0.5,0.9,0.4,2.1-0.3,2.9c-1.3,1.6-2.7,3.1-4.1,4.7c-0.1,0.1-0.2,0.3-0.4,0.5c0.3,0,0.5,0,0.6,0
	c2.3,0,4.6,0.3,6.9,0.8c3.6,0.8,7.1,2,10.4,3.9c7,3.8,12.6,9.5,16.8,17c2.1,3.8,3.7,7.8,4.8,12c0,0,0,0,0,0c0.3,1-0.2,2-1,2.3
	c-0.8,0.3-1.8-0.3-2.1-1.3c-2.8-10.9-8.7-19-17.2-24.7c-3.3-2.2-6.9-3.7-10.6-4.7c-2.7-0.7-5.4-1.1-8.1-1.2c-0.3,0-0.7,0-1,0
	c1.1,1.1,2.1,2,3.2,2.9c1,0.9,2,1.7,3,2.6c0.9,0.8,1,2.2,0.4,3.2c-0.6,0.9-1.4,0.9-2.4,0.1c-3-2.6-6.1-5.2-9.1-7.8
	c-0.7-0.6-1.2-1.2-1.4-2.2C1.5,14.4,1.5,14.2,1.5,13.9z"/>
</svg>
