<?xml version="1.0" encoding="utf-8"?>
<!-- Generator: Adobe Illustrator 21.0.0, SVG Export Plug-In . SVG Version: 6.00 Build 0)  -->
<svg version="1.1" id="Calque_1" xmlns="http://www.w3.org/2000/svg" xmlns:xlink="http://www.w3.org/1999/xlink" x="0px" y="0px"
	 viewBox="0 0 40.8 58" style="enable-background:new 0 0 40.8 58;" xml:space="preserve">
<style type="text/css">
	.st0{opacity:0.9;}
	.st1{fill:#FED239;}
	.st2{fill:#2D2D2D;stroke:#2D2D2D;stroke-width:2;stroke-linecap:round;stroke-linejoin:round;stroke-miterlimit:10;}
</style>
<g class="st0">
	<path class="st1" d="M40.8,51.2L33.3,1.9C33.1,0.7,32-0.2,30.8,0l-8.9,1.3c0.5,3.1-1.6,5.9-4.7,6.4S11.3,6.1,10.8,3L1.9,4.4
		C0.7,4.6-0.2,5.7,0,6.9l7.5,49.2c0.2,1.2,1.3,2.1,2.5,1.9l8.9-1.3c-0.5-3.1,1.6-5.9,4.7-6.4s5.9,1.6,6.4,4.7l8.9-1.3
		C40.1,53.5,41,52.4,40.8,51.2z"/>
</g>
<g>
	<path class="st2" d="M16.9,21.9c-0.6-0.9-1.2-1.8-1.9-2.8c4.4-0.2,8.7-0.5,13.1-0.7c-1.8,4-3.5,7.9-5.3,12c-0.7-1-1.3-1.8-1.9-2.7
		c-2.7,1.6-4,5.7-2.8,8.6c1.4,3.2,5.1,4.9,9.2,3.3c-3,2.6-9.9,1.7-12.9-1.7C10.2,33.3,11.3,25.8,16.9,21.9z"/>
</g>
</svg>
