<?xml version="1.0" encoding="utf-8"?>
<!-- Generator: Adobe Illustrator 21.0.0, SVG Export Plug-In . SVG Version: 6.00 Build 0)  -->
<svg version="1.1" id="Calque_1" xmlns="http://www.w3.org/2000/svg" xmlns:xlink="http://www.w3.org/1999/xlink" x="0px" y="0px"
	 viewBox="0 0 40.8 58" style="enable-background:new 0 0 40.8 58;" xml:space="preserve">
<style type="text/css">
	.st0{opacity:0.9;}
	.st1{fill:#FED239;}
	.st2{fill:#FF2D2D;}
</style>
<g class="st0">
	<path class="st1" d="M40.8,51.2L33.3,1.9C33.1,0.7,32-0.2,30.8,0l-8.9,1.3c0.5,3.1-1.6,5.9-4.7,6.4c-3.1,0.5-5.9-1.6-6.4-4.7
		L1.9,4.4C0.7,4.6-0.2,5.7,0,6.9l7.5,49.2c0.2,1.2,1.3,2.1,2.5,1.9l8.9-1.3c-0.5-3.1,1.6-5.9,4.7-6.4c3.1-0.5,5.9,1.6,6.4,4.7
		l8.9-1.3C40.1,53.5,41,52.4,40.8,51.2z M32.7,29.5c-0.7,2-1.9,3.5-3.5,4.9c-3,2.7-6.5,4.6-10.3,5.9c-0.5,0.2-0.9,0.1-1.4-0.2
		c-3.5-2.7-6.6-5.8-8.6-9.8c-0.9-1.7-1.4-3.6-1.3-5.5c0.2-3.5,2.7-6.6,6.1-7.1c2.8-0.4,5.2,0.5,7.2,2.6c0.1,0.1,0.2,0.2,0.4,0.4
		c1.1-0.7,2.2-1.1,3.4-1.3c3-0.5,6.1,0.9,7.5,3.3C33.3,24.9,33.5,27.1,32.7,29.5z"/>
	<path class="st2" d="M24.6,19.4c-1.2,0.2-2.3,0.6-3.4,1.3c-0.1-0.2-0.2-0.3-0.4-0.4c-2-2-4.3-3-7.2-2.6c-3.4,0.5-5.9,3.5-6.1,7.1
		c-0.1,2,0.4,3.8,1.3,5.5c2,4,5.1,7.1,8.6,9.8c0.4,0.3,0.8,0.4,1.4,0.2c3.8-1.3,7.3-3.2,10.3-5.9c1.5-1.4,2.8-2.9,3.5-4.9
		c0.8-2.3,0.6-4.6-0.6-6.8C30.7,20.2,27.6,18.9,24.6,19.4z"/>
</g>
</svg>
