<?xml version="1.0" encoding="utf-8"?>
<!-- Generator: Adobe Illustrator 21.0.0, SVG Export Plug-In . SVG Version: 6.00 Build 0)  -->
<svg version="1.1" id="Calque_1" xmlns="http://www.w3.org/2000/svg" xmlns:xlink="http://www.w3.org/1999/xlink" x="0px" y="0px"
	 viewBox="0 0 40.8 58" style="enable-background:new 0 0 40.8 58;" xml:space="preserve">
<style type="text/css">
	.st0{fill:#FFFFFF;}
</style>
<path class="st0" d="M-491.1,414.4c-3,3.1-7.8,3-10.8,0c-3.1-3-3-7.8,0-10.8l-8.7-8.6c-1.2-1.2-3.1-1.3-4.3-0.1l-47.9,48
	c-1.2,1.2-1.3,3.1-0.1,4.3l8.6,8.7c3-3.1,7.8-3,10.8,0c3.1,3,3,7.8,0,10.8l8.6,8.7c1.2,1.2,3.1,1.3,4.3,0.1l48-48
	c1.2-1.2,1.3-3.1,0.1-4.3L-491.1,414.4z M-507.2,440.3c-1.9,7.3-8.9,12.4-16.5,11.9c-7.6-0.5-13.9-6.2-15-13.7
	c-1.2-8.3,4.2-16.5,12.9-18.3c0-0.3,0-0.5,0-0.8c0-0.9,0.5-1.3,1.4-1.3c0.9,0,1.8,0,2.7,0c1.3,0,1.7,0.4,1.7,1.7c0,0.1,0,0.3,0,0.5
	c5.5,1.2,9.5,4.2,11.8,9.4C-506.5,433-506.2,436.6-507.2,440.3z"/>
<path class="st0" d="M-527.1,423c-7.3,2.4-11.2,10.3-8.7,17.5c2.5,7.3,10.3,11.2,17.6,8.7c7.2-2.4,11-10.3,8.6-17.5
	C-512,424.5-519.9,420.6-527.1,423z M-514.1,444.6c-2.8-2.8-5.6-5.6-8.5-8.5c2.8-2.9,5.6-5.7,8.5-8.5
	C-509.6,431.3-509,440-514.1,444.6z"/>
<path class="st0" d="M-384.7,435.2c0-4.3,3.4-7.6,7.6-7.7l-0.1-12.3c0-1.7-1.3-3.1-3-3.1l-67.8,0c-1.7,0-3.1,1.3-3.1,3l-0.1,12.3
	c4.3,0,7.6,3.4,7.7,7.6c0,4.3-3.4,7.6-7.6,7.7l-0.1,12.3c0,1.7,1.3,3.1,3,3.1l67.9,0c1.7,0,3.1-1.3,3.1-3l0.1-12.3
	C-381.4,442.9-384.7,439.5-384.7,435.2z M-398.6,440.3c-1.9,7.3-8.9,12.4-16.5,11.9c-7.6-0.5-13.9-6.2-15-13.7
	c-1.2-8.3,4.2-16.5,12.9-18.3c0-0.3,0-0.5,0-0.8c0-0.9,0.5-1.3,1.4-1.3c0.9,0,1.8,0,2.7,0c1.3,0,1.7,0.4,1.7,1.7c0,0.1,0,0.3,0,0.5
	c5.5,1.2,9.5,4.2,11.8,9.4C-397.8,433-397.6,436.6-398.6,440.3z"/>
<path class="st0" d="M-418.5,423c-7.3,2.4-11.2,10.3-8.7,17.5c2.5,7.3,10.3,11.2,17.6,8.7c7.2-2.4,11-10.3,8.6-17.5
	C-403.4,424.5-411.3,420.6-418.5,423z M-413.9,448.2c0-4,0-8,0-12c4,0,8,0,12,0C-401.4,441.9-407.1,448.5-413.9,448.2z"/>
<path class="st0" d="M-313,395c-1.2-1.2-3.1-1.3-4.3-0.1l-8.7,8.6c3.1,3,3,7.8,0,10.8c-3,3.1-7.8,3-10.8,0l-8.7,8.6
	c-1.2,1.2-1.3,3.1-0.1,4.3l48,48c1.2,1.2,3.1,1.3,4.3,0.1l8.7-8.6c-3.1-3-3-7.8,0-10.8c3-3.1,7.8-3,10.8,0l8.6-8.7
	c1.2-1.2,1.3-3.1,0.1-4.3L-313,395z M-289.8,440.3c-1.9,7.3-8.9,12.4-16.5,11.9c-7.6-0.5-13.9-6.2-15-13.7
	c-1.2-8.3,4.2-16.5,12.9-18.3c0-0.3,0-0.5,0-0.8c0-0.9,0.5-1.3,1.4-1.3c0.9,0,1.8,0,2.7,0c1.3,0,1.7,0.4,1.7,1.7c0,0.1,0,0.3,0,0.5
	c5.5,1.2,9.5,4.2,11.8,9.4C-289,433-288.8,436.6-289.8,440.3z"/>
<path class="st0" d="M-309.7,423c-7.3,2.4-11.2,10.3-8.7,17.5c2.5,7.3,10.3,11.2,17.6,8.7c7.2-2.4,11-10.3,8.6-17.5
	C-294.6,424.5-302.5,420.6-309.7,423z M-313.6,444.7c2.8-2.8,5.6-5.6,8.5-8.5c2.9,2.8,5.7,5.6,8.5,8.5
	C-300.3,449.1-309,449.7-313.6,444.7z"/>
<path class="st0" d="M-178.1,398.3l-12.3-0.1c0,4.3-3.4,7.6-7.6,7.7c-4.3,0-7.6-3.4-7.7-7.6l-12.3-0.1c-1.7,0-3.1,1.3-3.1,3l0,67.9
	c0,1.7,1.3,3.1,3,3.1l12.3,0.1c0-4.3,3.4-7.6,7.6-7.7c4.3,0,7.6,3.4,7.7,7.6l12.3-0.1c1.7,0,3.1-1.3,3.1-3l0-67.8
	C-175.1,399.7-176.4,398.2-178.1,398.3z M-182.5,440.3c-1.9,7.3-8.9,12.4-16.5,11.9c-7.6-0.5-13.9-6.2-15-13.7
	c-1.2-8.3,4.2-16.5,12.9-18.3c0-0.3,0-0.5,0-0.8c0-0.9,0.5-1.3,1.4-1.3c0.9,0,1.8,0,2.7,0c1.3,0,1.7,0.4,1.7,1.7c0,0.1,0,0.3,0,0.5
	c5.5,1.2,9.5,4.2,11.8,9.4C-181.8,433-181.5,436.6-182.5,440.3z"/>
<path class="st0" d="M-202.4,423c-7.3,2.4-11.2,10.3-8.7,17.5c2.5,7.3,10.3,11.2,17.6,8.7c7.2-2.4,11-10.3,8.6-17.5
	C-187.3,424.5-195.2,420.6-202.4,423z M-209.9,436.2c4,0,8,0,12,0c0,4,0,8,0,12C-203.7,448.7-210.2,443-209.9,436.2z"/>
<path class="st0" d="M-88.4,414.5c-3,3.1-7.8,3-10.8,0c-3.1-3-3-7.8,0-10.8l-8.6-8.7c-1.2-1.2-3.1-1.3-4.3-0.1l-48,48
	c-1.2,1.2-1.3,3.1-0.1,4.3l8.6,8.7c3-3.1,7.8-3,10.8,0c3.1,3,3,7.8,0,10.8l8.7,8.6c1.2,1.2,3.1,1.3,4.3,0.1l47.9-48
	c1.2-1.2,1.3-3.1,0.1-4.3L-88.4,414.5z M-104.4,440.3c-1.9,7.3-8.9,12.4-16.5,11.9c-7.6-0.5-13.9-6.2-15-13.7
	c-1.2-8.3,4.2-16.5,12.9-18.3c0-0.3,0-0.5,0-0.8c0-0.9,0.5-1.3,1.4-1.3c0.9,0,1.8,0,2.7,0c1.3,0,1.7,0.4,1.7,1.7c0,0.1,0,0.3,0,0.5
	c5.5,1.2,9.5,4.2,11.8,9.4C-103.7,433-103.5,436.6-104.4,440.3z"/>
<path class="st0" d="M-124.4,423c-7.3,2.4-11.2,10.3-8.7,17.5c2.5,7.3,10.3,11.2,17.6,8.7c7.2-2.4,11-10.3,8.6-17.5
	C-109.3,424.5-117.2,420.6-124.4,423z M-128.3,444.6c-4.6-3.7-5.1-12.4-0.1-17c2.8,2.8,5.6,5.6,8.5,8.5
	C-122.7,439-125.5,441.8-128.3,444.6z"/>
<path class="st0" d="M35.4,427.5l0.1-12.3c0-1.7-1.3-3.1-3-3.1l-67.9,0c-1.7,0-3.1,1.3-3.1,3l-0.1,12.3c4.3,0,7.6,3.4,7.7,7.6
	c0,4.3-3.4,7.6-7.6,7.7l0.1,12.3c0,1.7,1.3,3.1,3,3.1l67.8,0c1.7,0,3.1-1.3,3.1-3l0.1-12.3c-4.3,0-7.6-3.4-7.7-7.6
	C27.7,430.9,31.1,427.6,35.4,427.5z M13.9,440.3c-1.9,7.3-8.9,12.4-16.5,11.9c-7.6-0.5-13.9-6.2-15-13.7
	c-1.2-8.3,4.2-16.5,12.9-18.3c0-0.3,0-0.5,0-0.8c0-0.9,0.5-1.3,1.4-1.3c0.9,0,1.8,0,2.7,0c1.3,0,1.7,0.4,1.7,1.7c0,0.1,0,0.3,0,0.5
	c5.5,1.2,9.5,4.2,11.8,9.4C14.7,433,14.9,436.6,13.9,440.3z"/>
<path class="st0" d="M-6,423c-7.3,2.4-11.2,10.3-8.7,17.5c2.5,7.3,10.3,11.2,17.6,8.7c7.2-2.4,11-10.3,8.6-17.5
	C9.1,424.5,1.2,420.6-6,423z M-13.5,436.2c-0.6-5.8,5.1-12.4,12-12.1c0,4,0,8,0,12C-5.5,436.1-9.5,436.2-13.5,436.2z"/>
<path class="st0" d="M116.1,423c-7.3,2.4-11.2,10.3-8.7,17.5c2.5,7.3,10.3,11.2,17.6,8.7c7.2-2.4,11-10.3,8.6-17.5
	C131.2,424.5,123.3,420.6,116.1,423z M120.6,436.1c-2.9-2.8-5.7-5.6-8.5-8.5c3.7-4.6,12.4-5.1,17-0.1
	C126.3,430.4,123.5,433.2,120.6,436.1z"/>
<path class="st0" d="M160.8,443l-48-48c-1.2-1.2-3.1-1.3-4.3-0.1l-8.7,8.6c3.1,3,3,7.8,0,10.8c-3,3.1-7.8,3-10.8,0l-8.6,8.7
	c-1.2,1.2-1.3,3.1-0.1,4.3l48,47.9c1.2,1.2,3.1,1.3,4.3,0.1l8.7-8.6c-3.1-3-3-7.8,0-10.8c3-3.1,7.8-3,10.8,0l8.7-8.6
	C161.9,446.1,162,444.2,160.8,443z M136,440.3c-1.9,7.3-8.9,12.4-16.5,11.9c-7.6-0.5-13.9-6.2-15-13.7c-1.2-8.3,4.2-16.5,12.9-18.3
	c0-0.3,0-0.5,0-0.8c0-0.9,0.5-1.3,1.4-1.3c0.9,0,1.8,0,2.7,0c1.3,0,1.7,0.4,1.7,1.7c0,0.1,0,0.3,0,0.5c5.5,1.2,9.5,4.2,11.8,9.4
	C136.8,433,137,436.6,136,440.3z"/>
<path class="st0" d="M32.9-267.2c0-1.2-1-2.3-2.2-2.3l-9,0c0,3.1-2.5,5.6-5.6,5.6c-3.1,0-5.6-2.5-5.6-5.6l-9,0c-1.2,0-2.3,1-2.3,2.2
	l0,49.8c0,1.2,1,2.3,2.2,2.3l9,0c0-3.1,2.5-5.6,5.6-5.6c3.1,0,5.6,2.5,5.6,5.6l9,0c1.2,0,2.3-1,2.3-2.2L32.9-267.2z"/>
<path class="st0" d="M121.7-248c0.8-0.9,0.9-2.3,0-3.1l-6.3-6.4c-2.2,2.2-5.7,2.2-7.9,0c-2.2-2.2-2.2-5.7,0-7.9l-6.4-6.3
	c-0.9-0.8-2.3-0.9-3.1,0l-35.2,35.2c-0.8,0.9-0.9,2.3,0,3.1l6.3,6.4c2.2-2.2,5.7-2.2,7.9,0c2.2,2.2,2.2,5.7,0,7.9l6.3,6.4
	c0.9,0.8,2.3,0.9,3.1,0L121.7-248z"/>
<path class="st0" d="M196.9-225.5c1.2,0,2.3-1,2.3-2.2l0-9c-3.1,0-5.6-2.5-5.6-5.6c0-3.1,2.5-5.6,5.6-5.6l0-9c0-1.2-1-2.3-2.2-2.3
	l-49.8,0c-1.2,0-2.3,1-2.3,2.2l0,9c3.1,0,5.6,2.5,5.6,5.6c0,3.1-2.5,5.6-5.6,5.6l0,9c0,1.2,1,2.3,2.2,2.3L196.9-225.5z"/>
<path class="st0" d="M257.6-212.9c0.9,0.8,2.3,0.9,3.1,0l6.4-6.3c-2.2-2.2-2.2-5.7,0-7.9c2.2-2.2,5.7-2.2,7.9,0l6.3-6.4
	c0.8-0.9,0.9-2.3,0-3.1l-35.2-35.2c-0.9-0.8-2.3-0.9-3.1,0l-6.4,6.3c2.2,2.2,2.2,5.7,0,7.9c-2.2,2.2-5.7,2.2-7.9,0l-6.4,6.3
	c-0.8,0.9-0.9,2.3,0,3.1L257.6-212.9z"/>
<path class="st0" d="M313.8-217.4c0,1.2,1,2.3,2.2,2.3l9,0c0-3.1,2.5-5.6,5.6-5.6c3.1,0,5.6,2.5,5.6,5.6l9,0c1.2,0,2.3-1,2.3-2.2
	l0-49.8c0-1.2-1-2.3-2.2-2.3l-9,0c0,3.1-2.5,5.6-5.6,5.6c-3.1,0-5.6-2.5-5.6-5.6l-9,0c-1.2,0-2.3,1-2.3,2.2L313.8-217.4z"/>
<path class="st0" d="M358.5-236.6c-0.8,0.9-0.9,2.3,0,3.1l6.3,6.4c2.2-2.2,5.7-2.2,7.9,0c2.2,2.2,2.2,5.7,0,7.9l6.4,6.3
	c0.9,0.8,2.3,0.9,3.1,0l35.2-35.2c0.8-0.9,0.9-2.3,0-3.1l-6.3-6.4c-2.2,2.2-5.7,2.2-7.9,0c-2.2-2.2-2.2-5.7,0-7.9l-6.3-6.4
	c-0.9-0.8-2.3-0.9-3.1,0L358.5-236.6z"/>
<path class="st0" d="M450-259.1c-1.2,0-2.3,1-2.3,2.2l0,9c3.1,0,5.6,2.5,5.6,5.6c0,3.1-2.5,5.6-5.6,5.6l0,9c0,1.2,1,2.3,2.2,2.3
	l49.8,0c1.2,0,2.3-1,2.3-2.2l0-9c-3.1,0-5.6-2.5-5.6-5.6c0-3.1,2.5-5.6,5.6-5.6l0-9c0-1.2-1-2.3-2.2-2.3L450-259.1z"/>
<path class="st0" d="M558.8-271.8c-0.9-0.8-2.3-0.9-3.1,0l-6.4,6.3c2.2,2.2,2.2,5.7,0,7.9c-2.2,2.2-5.7,2.2-7.9,0l-6.3,6.4
	c-0.8,0.9-0.9,2.3,0,3.1l35.2,35.2c0.9,0.8,2.3,0.9,3.1,0l6.4-6.3c-2.2-2.2-2.2-5.7,0-7.9c2.2-2.2,5.7-2.2,7.9,0l6.4-6.3
	c0.8-0.9,0.9-2.3,0-3.1L558.8-271.8z"/>
<g>
	<path d="M13.9-253.3c0-0.2,0-0.4,0-0.6c0-0.6,0.3-1,1-1c0.7,0,1.3,0,2,0c1,0,1.2,0.3,1.3,1.2c0,0.1,0,0.2,0,0.4
		c4,0.9,7,3.1,8.7,6.9c1.2,2.5,1.3,5.2,0.6,7.8c-1.4,5.4-6.5,9.1-12.1,8.7c-5.6-0.3-10.2-4.6-11-10C3.5-246,7.4-252,13.9-253.3z
		 M6.4-238.4c1.8,5.4,7.6,8.2,12.9,6.4c5.3-1.8,8.1-7.6,6.3-12.9c-1.8-5.3-7.6-8.2-12.8-6.4C7.5-249.5,4.6-243.7,6.4-238.4z"/>
	<path d="M25-241.6c-2.9,0-5.8,0-8.8,0c0-3,0-5.9,0-8.8C20.4-250.9,25.2-246.7,25-241.6z"/>
</g>
<g>
	<path d="M90.1-253.3c0-0.2,0-0.4,0-0.6c0-0.6,0.3-1,1-1c0.7,0,1.3,0,2,0c1,0,1.2,0.3,1.3,1.2c0,0.1,0,0.2,0,0.4
		c4,0.9,7,3.1,8.7,6.9c1.2,2.5,1.3,5.2,0.6,7.8c-1.4,5.4-6.5,9.1-12.1,8.7c-5.6-0.3-10.2-4.6-11-10C79.7-246,83.6-252,90.1-253.3z
		 M82.6-238.4c1.8,5.4,7.6,8.2,12.9,6.4c5.3-1.8,8.1-7.6,6.3-12.9c-1.8-5.3-7.6-8.2-12.8-6.4C83.7-249.5,80.8-243.7,82.6-238.4z"/>
	<path d="M98.6-235.4c-2.1-2.1-4.1-4.1-6.3-6.2c2.1-2.1,4.1-4.2,6.2-6.2C101.9-245.1,102.3-238.8,98.6-235.4z"/>
</g>
<g>
	<path d="M169.8-253.3c0-0.2,0-0.4,0-0.6c0-0.6,0.3-1,1-1c0.7,0,1.3,0,2,0c1,0,1.2,0.3,1.3,1.2c0,0.1,0,0.2,0,0.4
		c4,0.9,7,3.1,8.7,6.9c1.2,2.5,1.3,5.2,0.6,7.8c-1.4,5.4-6.5,9.1-12.1,8.7c-5.6-0.3-10.2-4.6-11-10C159.4-246,163.4-252,169.8-253.3
		z M162.4-238.4c1.8,5.4,7.6,8.2,12.9,6.4c5.3-1.8,8.1-7.6,6.3-12.9c-1.8-5.3-7.6-8.2-12.8-6.4C163.4-249.5,160.6-243.7,162.4-238.4
		z"/>
	<path d="M172.1-232.8c0-2.9,0-5.8,0-8.8c3,0,5.9,0,8.8,0C181.3-237.3,177.2-232.5,172.1-232.8z"/>
</g>
<g>
	<path d="M249.7-253.3c0-0.2,0-0.4,0-0.6c0-0.6,0.3-1,1-1c0.7,0,1.3,0,2,0c1,0,1.2,0.3,1.3,1.2c0,0.1,0,0.2,0,0.4
		c4,0.9,7,3.1,8.7,6.9c1.2,2.5,1.3,5.2,0.6,7.8c-1.4,5.4-6.5,9.1-12.1,8.7c-5.6-0.3-10.2-4.6-11-10C239.3-246,243.2-252,249.7-253.3
		z M242.2-238.4c1.8,5.4,7.6,8.2,12.9,6.4c5.3-1.8,8.1-7.6,6.3-12.9c-1.8-5.3-7.6-8.2-12.8-6.4C243.3-249.5,240.4-243.7,242.2-238.4
		z"/>
	<path d="M245.7-235.3c2.1-2.1,4.1-4.1,6.2-6.3c2.1,2.1,4.2,4.1,6.2,6.2C255.5-232.1,249.1-231.6,245.7-235.3z"/>
</g>
<g>
	<path d="M328.5-253.3c0-0.2,0-0.4,0-0.6c0-0.6,0.3-1,1-1c0.7,0,1.3,0,2,0c1,0,1.2,0.3,1.3,1.2c0,0.1,0,0.2,0,0.4
		c4,0.9,7,3.1,8.7,6.9c1.2,2.5,1.3,5.2,0.6,7.8c-1.4,5.4-6.5,9.1-12.1,8.7c-5.6-0.3-10.2-4.6-11-10C318.1-246,322-252,328.5-253.3z
		 M321-238.4c1.8,5.4,7.6,8.2,12.9,6.4c5.3-1.8,8.1-7.6,6.3-12.9c-1.8-5.3-7.6-8.2-12.8-6.4C322.1-249.5,319.2-243.7,321-238.4z"/>
	<path d="M321.9-241.6c2.9,0,5.8,0,8.8,0c0,3,0,5.9,0,8.8C326.5-232.4,321.7-236.6,321.9-241.6z"/>
</g>
<g>
	<path d="M385.8-253.3c0-0.2,0-0.4,0-0.6c0-0.6,0.3-1,1-1c0.7,0,1.3,0,2,0c1,0,1.2,0.3,1.3,1.2c0,0.1,0,0.2,0,0.4
		c4,0.9,7,3.1,8.7,6.9c1.2,2.5,1.3,5.2,0.6,7.8c-1.4,5.4-6.5,9.1-12.1,8.7c-5.6-0.3-10.2-4.6-11-10C375.3-246,379.3-252,385.8-253.3
		z M378.3-238.4c1.8,5.4,7.6,8.2,12.9,6.4c5.3-1.8,8.1-7.6,6.3-12.9c-1.8-5.3-7.6-8.2-12.8-6.4C379.4-249.5,376.5-243.7,378.3-238.4
		z"/>
	<path d="M381.8-247.8c2.1,2.1,4.1,4.1,6.3,6.2c-2.1,2.1-4.1,4.2-6.2,6.2C378.5-238.1,378-244.4,381.8-247.8z"/>
</g>
<g>
	<path d="M472.7-253.3c0-0.2,0-0.4,0-0.6c0-0.6,0.3-1,1-1c0.7,0,1.3,0,2,0c1,0,1.2,0.3,1.3,1.2c0,0.1,0,0.2,0,0.4
		c4,0.9,7,3.1,8.7,6.9c1.2,2.5,1.3,5.2,0.6,7.8c-1.4,5.4-6.5,9.1-12.1,8.7c-5.6-0.3-10.2-4.6-11-10C462.3-246,466.2-252,472.7-253.3
		z M465.2-238.4c1.8,5.4,7.6,8.2,12.9,6.4c5.3-1.8,8.1-7.6,6.3-12.9c-1.8-5.3-7.6-8.2-12.8-6.4C466.3-249.5,463.4-243.7,465.2-238.4
		z"/>
	<path d="M474.9-250.5c0,2.9,0,5.8,0,8.8c-3,0-5.9,0-8.8,0C465.7-245.9,469.9-250.7,474.9-250.5z"/>
</g>
<g>
	<path d="M562.3-253.3c0-0.2,0-0.4,0-0.6c0-0.6,0.3-1,1-1c0.7,0,1.3,0,2,0c1,0,1.2,0.3,1.3,1.2c0,0.1,0,0.2,0,0.4
		c4,0.9,7,3.1,8.7,6.9c1.2,2.5,1.3,5.2,0.6,7.8c-1.4,5.4-6.5,9.1-12.1,8.7c-5.6-0.3-10.2-4.6-11-10C551.9-246,555.8-252,562.3-253.3
		z M554.8-238.4c1.8,5.4,7.6,8.2,12.9,6.4c5.3-1.8,8.1-7.6,6.3-12.9c-1.8-5.3-7.6-8.2-12.8-6.4C555.9-249.5,553.1-243.7,554.8-238.4
		z"/>
	<path d="M570.8-247.9c-2.1,2.1-4.1,4.1-6.2,6.3c-2.1-2.1-4.2-4.1-6.2-6.2C561.1-251.2,567.4-251.6,570.8-247.9z"/>
</g>
<path class="st0" d="M-607.9,398.2l-12.3-0.1c0,4.3-3.4,7.6-7.6,7.7c-4.3,0-7.6-3.4-7.7-7.6l-12.3,0.1c-1.7,0-3.1,1.3-3.1,3l0,67.8
	c0,1.7,1.3,3.1,3,3.1l12.3,0.1c0-4.3,3.4-7.6,7.6-7.7c4.3,0,7.6,3.4,7.7,7.6l12.3,0.1c1.7,0,3.1-1.3,3.1-3l0-67.9
	C-604.9,399.6-606.2,398.2-607.9,398.2z M-612.3,440.3c-1.9,7.3-8.9,12.4-16.5,11.9c-7.6-0.5-13.9-6.2-15-13.7
	c-1.2-8.3,4.2-16.5,12.9-18.3c0-0.3,0-0.5,0-0.8c0-0.9,0.5-1.3,1.4-1.3c0.9,0,1.8,0,2.7,0c1.3,0,1.7,0.4,1.7,1.7c0,0.1,0,0.3,0,0.5
	c5.5,1.2,9.5,4.2,11.8,9.4C-611.6,433-611.4,436.6-612.3,440.3z"/>
<path class="st0" d="M-632.2,423c-7.3,2.4-11.2,10.3-8.7,17.5c2.5,7.3,10.3,11.2,17.6,8.7c7.2-2.4,11-10.3,8.6-17.5
	C-617.1,424.5-625,420.6-632.2,423z M-627.7,436.1c0-4,0-8,0-12c5.8-0.6,12.4,5.1,12.1,12C-619.6,436.1-623.6,436.1-627.7,436.1z"/>
</svg>
