<?xml version="1.0" encoding="utf-8"?>
<!-- Generator: Adobe Illustrator 21.0.0, SVG Export Plug-In . SVG Version: 6.00 Build 0)  -->
<svg version="1.1" id="Calque_1" xmlns="http://www.w3.org/2000/svg" xmlns:xlink="http://www.w3.org/1999/xlink" x="0px" y="0px"
	 viewBox="0 0 40.8 58" style="enable-background:new 0 0 40.8 58;" xml:space="preserve">
<style type="text/css">
	.st0{fill:#FED239;}
	.st1{fill:#2D2D2D;}
</style>
<g>
	<path class="st0" d="M30.8,0l-8.9,1.3c0.5,3.1-1.6,5.9-4.7,6.4S11.3,6.1,10.8,3L1.9,4.4C0.7,4.6-0.2,5.7,0,6.9l7.5,49.2
		c0.2,1.2,1.3,2.1,2.5,1.9l8.9-1.3c-0.5-3.1,1.6-5.9,4.7-6.4s5.9,1.6,6.4,4.7l8.9-1.3c1.2-0.2,2.1-1.3,1.9-2.5L33.3,1.9
		C33.1,0.7,32-0.2,30.8,0z"/>
</g>
<path class="st1" d="M26.6,39.1c-1.2,2.1-2.7,3-4.8,3.1c-1.5,0-2.9-0.3-4.2-0.9c-1.3-0.6-2.2-1.6-2.7-3c-1.1-2.8-2.2-5.7-3.3-8.5
	c-0.2-0.6-0.5-1.4,0.3-1.9c0.5-0.4,1.3,0,1.9,0.9c0.5,0.7,0.9,1.5,1.3,2.2c0.1,0.2,0.3,0.3,0.5,0.5c0.1-0.2,0.2-0.4,0.3-0.7
	c0.6-3.6,1.1-7.2,1.7-10.8c0.1-0.4,0.1-0.8,0.2-1.2c0.2-0.8,0.6-1.1,1.3-1c0.7,0.1,1.1,0.6,1,1.4c-0.3,1.9-0.6,3.7-0.9,5.6
	c-0.1,0.7-0.2,1.4-0.3,2c-0.1,0.4-0.2,0.9,0.3,1c0.6,0.1,0.6-0.5,0.6-0.8c0.5-3.2,1-6.4,1.5-9.5c0.1-0.3,0.1-0.7,0.2-1
	c0.2-0.5,0.6-0.8,1.2-0.8c0.6,0.1,1,0.4,1,1.1c0,0.3,0,0.6-0.1,0.9c-0.5,3.2-1,6.4-1.5,9.6c-0.1,0.4-0.4,1.1,0.3,1.2
	c0.7,0.1,0.6-0.6,0.6-1c0.4-2.6,0.8-5.1,1.2-7.7c0-0.2,0.1-0.4,0.1-0.6c0.2-0.8,0.6-1.1,1.3-1.1c0.7,0.1,1.1,0.6,1,1.4
	s-0.2,1.6-0.4,2.4c-0.3,2-0.6,4-0.9,6c0,0.3-0.1,0.6-0.1,0.9c0,0.1,0.2,0.4,0.3,0.4c0.2,0,0.4-0.1,0.5-0.3c0.1-0.2,0.1-0.5,0.2-0.7
	c0.3-1.8,0.6-3.6,0.9-5.5c0.1-0.4,0.1-0.8,0.3-1c0.3-0.3,0.8-0.5,1.1-0.5c0.4,0.1,0.7,0.5,0.9,0.9c0.1,0.2,0,0.6,0,1
	c-0.7,4.8-1.5,9.7-2.2,14.5C27,38.1,26.7,38.8,26.6,39.1z"/>
</svg>
