<?xml version="1.0" encoding="utf-8"?>
<!-- Generator: Adobe Illustrator 21.0.0, SVG Export Plug-In . SVG Version: 6.00 Build 0)  -->
<svg version="1.1" id="Calque_1" xmlns="http://www.w3.org/2000/svg" xmlns:xlink="http://www.w3.org/1999/xlink" x="0px" y="0px"
	 viewBox="0 0 400 300" style="enable-background:new 0 0 400 300;" xml:space="preserve">
<style type="text/css">
	.st0{fill:#FFFFFF;}
</style>
<g>
	<path class="st0" d="M381.8,10.5H18.2C8.2,10.5,0,18.6,0,28.6v21.3v7v213.8c0,10,8.2,18.2,18.2,18.2h363.6c10,0,18.2-8.2,18.2-18.2
		V57v-7V28.6C400,18.6,391.8,10.5,381.8,10.5z M334.6,281.9h-8.8v-36.2c0-4.2-3.4-7.5-7.5-7.5h-51.8c-4.2,0-7.5,3.4-7.5,7.5v36.2
		H65.4v-44c0-4.1,3.3-7.3,7.3-7.3h254.4c4.1,0,7.3,3.3,7.3,7.3V281.9z M318.8,281.9h-52.8v-36.2c0-0.3,0.2-0.5,0.5-0.5h51.8
		c0.3,0,0.5,0.2,0.5,0.5V281.9z M393,270.8c0,6.2-5,11.2-11.2,11.2h-40.2v-44c0-7.9-6.4-14.4-14.4-14.4H72.8
		c-7.9,0-14.4,6.4-14.4,14.4v44H18.2c-6.2,0-11.2-5-11.2-11.2V57h386V270.8z M7,49.9V28.6c0-6.2,5-11.2,11.2-11.2h363.6
		c6.1,0,11.2,5,11.2,11.2v21.3H7z"/>
	<path class="st0" d="M72.8,212.4h254.4c7.9,0,14.4-6.4,14.4-14.4v-95c0-7.9-6.4-14.4-14.4-14.4H72.8c-7.9,0-14.4,6.4-14.4,14.4v95
		C58.4,206,64.9,212.4,72.8,212.4z M65.4,103.1c0-4.1,3.3-7.3,7.3-7.3h254.4c4.1,0,7.3,3.3,7.3,7.3v95c0,4.1-3.3,7.3-7.3,7.3H72.8
		c-4.1,0-7.3-3.3-7.3-7.3V103.1z"/>
	<path class="st0" d="M266.4,197.8h51.8c4.2,0,7.5-3.4,7.5-7.5v-79.3c0-4.2-3.4-7.5-7.5-7.5h-51.8c-4.2,0-7.5,3.4-7.5,7.5v79.3
		C258.9,194.4,262.3,197.8,266.4,197.8z M265.9,110.9c0-0.3,0.2-0.5,0.5-0.5h51.8c0.3,0,0.5,0.2,0.5,0.5v79.3c0,0.3-0.2,0.5-0.5,0.5
		h-51.8c-0.3,0-0.5-0.2-0.5-0.5V110.9z"/>
	<path class="st0" d="M80.2,114.2h71.5c1.9,0,3.5-1.6,3.5-3.5s-1.6-3.5-3.5-3.5H80.2c-1.9,0-3.5,1.6-3.5,3.5S78.3,114.2,80.2,114.2z
		"/>
	<path class="st0" d="M151.7,242H80.2c-1.9,0-3.5,1.6-3.5,3.5c0,1.9,1.6,3.5,3.5,3.5h71.5c1.9,0,3.5-1.6,3.5-3.5
		C155.2,243.6,153.7,242,151.7,242z"/>
</g>
</svg>
