<?xml version="1.0" encoding="utf-8"?>
<!-- Generator: Adobe Illustrator 21.0.0, SVG Export Plug-In . SVG Version: 6.00 Build 0)  -->
<svg version="1.1" id="Calque_1" xmlns="http://www.w3.org/2000/svg" xmlns:xlink="http://www.w3.org/1999/xlink" x="0px" y="0px"
	 viewBox="0 0 400 300" style="enable-background:new 0 0 400 300;" xml:space="preserve">
<style type="text/css">
	.st0{fill:#FFFFFF;}
</style>
<g>
	<path class="st0" d="M381.8,10.5H18.2C8.2,10.5,0,18.6,0,28.6v21.3v7v213.8c0,10,8.2,18.2,18.2,18.2h363.6c10,0,18.2-8.2,18.2-18.2
		V57v-7V28.6C400,18.6,391.8,10.5,381.8,10.5z M137.9,234.1c0-10.4-4.3-19.9-11.3-26.7v-56.6c0-1.9,1.8-3.5,3.9-3.5h138.9
		c2.1,0,3.9,1.6,3.9,3.5v56.6c-6.9,6.8-11.3,16.2-11.3,26.7s4.3,19.9,11.3,26.7V282H126.6v-21.2C133.6,254,137.9,244.5,137.9,234.1z
		 M280.4,266.1c4.6,2.8,9.9,4.6,15.5,5.1v10.7h-15.5V266.1z M299.4,264.3c-16.7,0-30.3-13.6-30.3-30.3s13.6-30.3,30.3-30.3
		s30.3,13.6,30.3,30.3C329.6,250.8,316.1,264.3,299.4,264.3z M295.9,197c-5.6,0.5-10.9,2.3-15.5,5.1v-51.2c0-5.8-4.9-10.5-10.9-10.5
		h-139c-6,0-10.9,4.7-10.9,10.5V202c-4.6-2.8-9.9-4.6-15.5-5.1v-97c0-1.9,1.8-3.5,3.9-3.5h184c2.1,0,3.9,1.6,3.9,3.5V197z
		 M100.6,203.8c16.7,0,30.3,13.6,30.3,30.3s-13.6,30.3-30.3,30.3s-30.3-13.6-30.3-30.3C70.4,217.4,83.9,203.8,100.6,203.8z
		 M104.1,271.2c5.6-0.5,10.9-2.3,15.5-5.1v15.8h-15.5V271.2z M393,270.8c0,6.2-5,11.2-11.2,11.2h-78.9v-10.7
		c18.9-1.8,33.8-17.7,33.8-37.1s-14.9-35.3-33.8-37.1v-97c0-5.8-4.9-10.5-10.9-10.5H108c-6,0-10.9,4.7-10.9,10.5v97
		c-18.9,1.8-33.8,17.7-33.8,37.1s14.9,35.3,33.8,37.1V282H18.2C12,282,7,277,7,270.8V57h386V270.8z M7,49.9V28.6
		c0-6.2,5-11.2,11.2-11.2h363.6c6.1,0,11.2,5,11.2,11.2v21.3H7z"/>
	<path class="st0" d="M83.1,251.6c0.7,0.7,1.6,1,2.5,1s1.8-0.3,2.5-1l12.5-12.5l12.5,12.5c0.7,0.7,1.6,1,2.5,1s1.8-0.3,2.5-1
		c1.4-1.4,1.4-3.6,0-5l-12.5-12.5l12.5-12.5c1.4-1.4,1.4-3.6,0-5s-3.6-1.4-5,0l-12.5,12.5L88,216.6c-1.4-1.4-3.6-1.4-5,0
		s-1.4,3.6,0,5l12.5,12.5L83,246.6C81.7,248,81.7,250.2,83.1,251.6z"/>
	<path class="st0" d="M313.8,216.7c-1.6-1-3.8-0.5-4.8,1.2l-15.8,25.9l-8.7-13.7c-1-1.6-3.2-2.1-4.8-1.1c-1.6,1-2.1,3.2-1.1,4.8
		l11.7,18.5c0.6,1,1.8,1.6,3,1.6l0,0c1.2,0,2.3-0.6,3-1.7l18.7-30.7C315.9,219.9,315.4,217.8,313.8,216.7z"/>
</g>
</svg>
