<?xml version="1.0" encoding="utf-8"?>
<!-- Generator: Adobe Illustrator 21.0.0, SVG Export Plug-In . SVG Version: 6.00 Build 0)  -->
<svg version="1.1" id="Calque_1" xmlns="http://www.w3.org/2000/svg" xmlns:xlink="http://www.w3.org/1999/xlink" x="0px" y="0px"
	 viewBox="0 0 400 300" style="enable-background:new 0 0 400 300;" xml:space="preserve">
<style type="text/css">
	.st0{fill:#FFFFFF;}
</style>
<path class="st0" d="M381.8,10.4H18.2C8.2,10.4,0,18.5,0,28.6v21.3v7v213.9c0,10,8.2,18.2,18.2,18.2h363.6c10,0,18.2-8.2,18.2-18.2
	V56.9v-7V28.6C400,18.5,391.8,10.4,381.8,10.4z M64.3,223.6c11.2,0,20.4,9.1,20.4,20.4c0,11.2-9.1,20.4-20.4,20.4
	c-11.2,0-20.4-9.1-20.4-20.4C44,232.8,53.1,223.6,64.3,223.6z M65.4,282v-10.6c14.6-0.6,26.3-12.6,26.3-27.4
	c0-14.7-11.7-26.8-26.3-27.4V99.1c0-1.9,1.6-3.5,3.5-3.5h112.3c1.9,0,3.5,1.6,3.5,3.5v122.1c-7.3,4.9-12.2,13.3-12.2,22.8
	s4.8,17.9,12.2,22.8V282H65.4z M220.4,244c0,11.2-9.1,20.4-20.4,20.4s-20.4-9.1-20.4-20.4c0-11.2,9.1-20.4,20.4-20.4
	S220.4,232.8,220.4,244z M191.8,282v-11.8c2.6,0.8,5.3,1.3,8.2,1.3s5.6-0.4,8.2-1.3V282H191.8z M215.2,282v-15.2
	c7.3-4.9,12.2-13.3,12.2-22.8s-4.8-17.9-12.2-22.8V99.1c0-1.9,1.6-3.5,3.5-3.5H331c1.9,0,3.5,1.6,3.5,3.5v117.5
	c-14.6,0.6-26.3,12.6-26.3,27.4c0,14.7,11.7,26.8,26.3,27.4V282H215.2z M335.7,264.4c-11.2,0-20.4-9.1-20.4-20.4
	c0-11.2,9.1-20.4,20.4-20.4c11.2,0,20.4,9.1,20.4,20.4C356,255.3,346.9,264.4,335.7,264.4z M393,270.8c0,6.2-5,11.2-11.2,11.2h-40.2
	v-11.2c12.3-2.7,21.5-13.7,21.5-26.7s-9.2-24-21.5-26.7V99.1c0-5.8-4.7-10.5-10.5-10.5H218.7c-5.8,0-10.5,4.7-10.5,10.5v118.7
	c-2.6-0.8-5.3-1.3-8.2-1.3s-5.6,0.4-8.2,1.3V99.1c0-5.8-4.7-10.5-10.5-10.5H69c-5.8,0-10.5,4.7-10.5,10.5v118.2
	C46.2,220,36.9,230.9,36.9,244s9.2,24,21.5,26.7V282H18.2C12,282,7,277,7,270.8V56.9h386V270.8z M7,49.9V28.6
	c0-6.2,5-11.2,11.2-11.2h363.6c6.2,0,11.2,5,11.2,11.2v21.3H7z"/>
<path class="st0" d="M132.2,216.6c-15.1,0-27.4,12.3-27.4,27.4c0,15.1,12.3,27.4,27.4,27.4c15.1,0,27.4-12.3,27.4-27.4
	C159.6,228.9,147.3,216.6,132.2,216.6z M132.2,264.4c-11.2,0-20.4-9.1-20.4-20.4c0-11.2,9.1-20.4,20.4-20.4
	c11.2,0,20.4,9.1,20.4,20.4C152.5,255.3,143.4,264.4,132.2,264.4z"/>
<path class="st0" d="M267.8,216.6c-15.1,0-27.4,12.3-27.4,27.4c0,15.1,12.3,27.4,27.4,27.4c15.1,0,27.4-12.3,27.4-27.4
	C295.2,228.9,282.9,216.6,267.8,216.6z M267.8,264.4c-11.2,0-20.4-9.1-20.4-20.4c0-11.2,9.1-20.4,20.4-20.4
	c11.2,0,20.4,9.1,20.4,20.4C288.2,255.3,279.1,264.4,267.8,264.4z"/>
</svg>
